<svg width="1200" height="800" viewBox="0 0 1200 800" fill="none" xmlns="http://www.w3.org/2000/svg">
  <!-- Background -->
  <rect width="1200" height="800" fill="#F8FAFC"/>
  
  <!-- Header -->
  <rect x="40" y="40" width="1120" height="80" rx="16" fill="white" stroke="#E2E8F0" stroke-width="2"/>
  <rect x="80" y="70" width="200" height="20" rx="4" fill="#6366F1"/>
  <rect x="300" y="70" width="150" height="20" rx="4" fill="#F1F5F9"/>
  <rect x="470" y="70" width="120" height="20" rx="4" fill="#F1F5F9"/>
  
  <!-- KPI Cards Row -->
  <rect x="40" y="140" width="280" height="120" rx="16" fill="white" stroke="#E2E8F0" stroke-width="2"/>
  <rect x="60" y="160" width="240" height="20" rx="4" fill="#10B981"/>
  <rect x="60" y="190" width="120" height="30" rx="4" fill="#F1F5F9"/>
  <rect x="60" y="230" width="80" height="16" rx="4" fill="#94A3B8"/>
  
  <rect x="340" y="140" width="280" height="120" rx="16" fill="white" stroke="#E2E8F0" stroke-width="2"/>
  <rect x="360" y="160" width="240" height="20" rx="4" fill="#F59E0B"/>
  <rect x="360" y="190" width="120" height="30" rx="4" fill="#F1F5F9"/>
  <rect x="360" y="230" width="80" height="16" rx="4" fill="#94A3B8"/>
  
  <rect x="640" y="140" width="280" height="120" rx="16" fill="white" stroke="#E2E8F0" stroke-width="2"/>
  <rect x="660" y="160" width="240" height="20" rx="4" fill="#EF4444"/>
  <rect x="660" y="190" width="120" height="30" rx="4" fill="#F1F5F9"/>
  <rect x="660" y="230" width="80" height="16" rx="4" fill="#94A3B8"/>
  
  <rect x="940" y="140" width="220" height="120" rx="16" fill="white" stroke="#E2E8F0" stroke-width="2"/>
  <rect x="960" y="160" width="180" height="20" rx="4" fill="#8B5CF6"/>
  <rect x="960" y="190" width="120" height="30" rx="4" fill="#F1F5F9"/>
  <rect x="960" y="230" width="80" height="16" rx="4" fill="#94A3B8"/>
  
  <!-- Main Content Area -->
  <rect x="40" y="280" width="1120" height="480" rx="16" fill="white" stroke="#E2E8F0" stroke-width="2"/>
  
  <!-- Left Column - Tasks -->
  <rect x="60" y="300" width="800" height="40" rx="8" fill="#F1F5F9"/>
  <rect x="60" y="350" width="800" height="60" rx="8" fill="white" stroke="#E2E8F0" stroke-width="1"/>
  <rect x="80" y="370" width="20" height="20" rx="4" fill="#10B981"/>
  <rect x="120" y="370" width="300" height="20" rx="4" fill="#1E293B"/>
  <rect x="440" y="370" width="80" height="20" rx="4" fill="#F59E0B"/>
  <rect x="540" y="370" width="100" height="20" rx="4" fill="#6366F1"/>
  <rect x="660" y="370" width="80" height="20" rx="4" fill="#94A3B8"/>
  
  <rect x="60" y="420" width="800" height="60" rx="8" fill="white" stroke="#E2E8F0" stroke-width="1"/>
  <rect x="80" y="440" width="20" height="20" rx="4" fill="#F1F5F9"/>
  <rect x="120" y="440" width="300" height="20" rx="4" fill="#1E293B"/>
  <rect x="440" y="440" width="80" height="20" rx="4" fill="#EF4444"/>
  <rect x="540" y="440" width="100" height="20" rx="4" fill="#6366F1"/>
  <rect x="660" y="440" width="80" height="20" rx="4" fill="#94A3B8"/>
  
  <rect x="60" y="490" width="800" height="60" rx="8" fill="white" stroke="#E2E8F0" stroke-width="1"/>
  <rect x="80" y="510" width="20" height="20" rx="4" fill="#F1F5F9"/>
  <rect x="120" y="510" width="300" height="20" rx="4" fill="#1E293B"/>
  <rect x="440" y="510" width="80" height="20" rx="4" fill="#10B981"/>
  <rect x="540" y="510" width="100" height="20" rx="4" fill="#6366F1"/>
  <rect x="660" y="510" width="80" height="20" rx="4" fill="#94A3B8"/>
  
  <rect x="60" y="560" width="800" height="60" rx="8" fill="white" stroke="#E2E8F0" stroke-width="1"/>
  <rect x="80" y="580" width="20" height="20" rx="4" fill="#F1F5F9"/>
  <rect x="120" y="580" width="300" height="20" rx="4" fill="#1E293B"/>
  <rect x="440" y="580" width="80" height="20" rx="4" fill="#F59E0B"/>
  <rect x="540" y="580" width="100" height="20" rx="4" fill="#6366F1"/>
  <rect x="660" y="580" width="80" height="20" rx="4" fill="#94A3B8"/>
  
  <rect x="60" y="630" width="800" height="60" rx="8" fill="white" stroke="#E2E8F0" stroke-width="1"/>
  <rect x="80" y="650" width="20" height="20" rx="4" fill="#F1F5F9"/>
  <rect x="120" y="650" width="300" height="20" rx="4" fill="#1E293B"/>
  <rect x="440" y="650" width="80" height="20" rx="4" fill="#EF4444"/>
  <rect x="540" y="650" width="100" height="20" rx="4" fill="#6366F1"/>
  <rect x="660" y="650" width="80" height="20" rx="4" fill="#94A3B8"/>
  
  <!-- Right Column - Stats -->
  <rect x="880" y="300" width="260" height="120" rx="12" fill="white" stroke="#E2E8F0" stroke-width="1"/>
  <rect x="900" y="320" width="220" height="20" rx="4" fill="#6366F1"/>
  <rect x="900" y="350" width="180" height="30" rx="4" fill="#F1F5F9"/>
  <rect x="900" y="390" width="120" height="16" rx="4" fill="#94A3B8"/>
  
  <rect x="880" y="440" width="260" height="100" rx="12" fill="white" stroke="#E2E8F0" stroke-width="1"/>
  <rect x="900" y="460" width="220" height="20" rx="4" fill="#10B981"/>
  <rect x="900" y="490" width="180" height="30" rx="4" fill="#F1F5F9"/>
  <rect x="900" y="530" width="120" height="16" rx="4" fill="#94A3B8"/>
  
  <!-- Add Task Button -->
  <rect x="880" y="560" width="260" height="60" rx="12" fill="#6366F1"/>
  <rect x="920" y="580" width="20" height="20" rx="4" fill="white"/>
  <rect x="950" y="590" width="120" height="20" rx="4" fill="white"/>
  
  <!-- Floating Elements -->
  <rect x="1000" y="200" width="120" height="80" rx="12" fill="white" stroke="#E2E8F0" stroke-width="2"/>
  <rect x="1020" y="220" width="20" height="20" rx="10" fill="#10B981"/>
  <rect x="1050" y="220" width="60" height="20" rx="4" fill="#1E293B"/>
  <rect x="1020" y="250" width="80" height="16" rx="4" fill="#94A3B8"/>
  
  <rect x="80" y="680" width="120" height="80" rx="12" fill="white" stroke="#E2E8F0" stroke-width="2"/>
  <rect x="100" y="700" width="20" height="20" rx="10" fill="#6366F1"/>
  <rect x="130" y="700" width="60" height="20" rx="4" fill="#1E293B"/>
  <rect x="100" y="730" width="80" height="16" rx="4" fill="#94A3B8"/>
</svg>
